<?xml version="1.0" encoding="UTF-8"?>
<svg width="32px" height="32px" viewBox="0 0 32 32" version="1.1" xmlns="http://www.w3.org/2000/svg" xmlns:xlink="http://www.w3.org/1999/xlink">
    <!-- Generator: Sketch 51.2 (57519) - http://www.bohemiancoding.com/sketch -->
    <title>if_24_539148</title>
    <desc>Created with Sketch.</desc>
    <defs></defs>
    <g id="Page-1" stroke="none" stroke-width="1" fill="none" fill-rule="evenodd">
        <g id="if_24_539148" fill="#010101" fill-rule="nonzero">
            <path d="M16,32 C7.14893617,32 0,24.8510638 0,16 C0,7.14893617 7.14893617,0 16,0 C24.8510638,0 32,7.14893617 32,16 C32,24.8510638 24.8510638,32 16,32 Z M16,1.36170213 C7.89787234,1.36170213 1.36170213,7.89787234 1.36170213,16 C1.36170213,24.1021277 7.89787234,30.6382979 16,30.6382979 C24.1021277,30.6382979 30.6382979,24.1021277 30.6382979,16 C30.6382979,7.89787234 24.1021277,1.36170213 16,1.36170213 Z" id="Shape"></path>
            <path d="M13.5494321,29 L12.3809191,28.2239264 L18.8421086,18.4171779 L11.6935585,18.4171779 C11.4186143,18.4171779 11.2124061,18.2760736 11.074934,18.0644172 C10.9374619,17.8527607 11.0061979,17.5705521 11.14367,17.3588957 L18.6359005,6 L19.8044135,6.77607362 L13.0682797,16.8650307 L20.2855659,16.8650307 C20.5605101,16.8650307 20.7667183,17.006135 20.9041904,17.2177914 C21.0416625,17.4294479 21.0416625,17.7116564 20.8354543,17.9233129 L13.5494321,29 Z" id="Shape"></path>
        </g>
    </g>
</svg>